<svg xmlns="http://www.w3.org/2000/svg" xmlns:xlink="http://www.w3.org/1999/xlink" width="500" zoomAndPan="magnify" viewBox="0 0 375 374.999991" height="500" preserveAspectRatio="xMidYMid meet" version="1.0"><path fill="#00aeef" d="M 187.515625 220.226562 C 205.53125 220.226562 220.097656 205.554688 220.097656 187.507812 L 220.097656 2.820312 C 233.960938 5.246094 247.496094 9.230469 260.539062 14.746094 C 264.199219 16.292969 267.929688 17.953125 271.398438 19.722656 L 271.398438 187.507812 C 271.398438 198.820312 269.140625 209.8125 264.765625 220.167969 C 260.546875 230.164062 254.464844 239.140625 246.777344 246.835938 C 239.085938 254.542969 230.117188 260.59375 220.121094 264.820312 C 209.765625 269.210938 198.773438 271.429688 187.453125 271.429688 C 176.132812 271.429688 165.140625 269.210938 154.785156 264.828125 C 144.792969 260.601562 135.832031 254.550781 128.140625 246.851562 C 120.449219 239.15625 114.414062 230.183594 110.195312 220.183594 C 105.820312 209.828125 103.613281 198.835938 103.613281 187.523438 C 103.613281 176.210938 105.859375 165.21875 110.242188 154.855469 C 114.46875 144.859375 120.558594 135.890625 128.253906 128.195312 C 135.929688 120.519531 144.882812 114.484375 154.933594 110.261719 L 154.933594 187.539062 C 154.933594 187.539062 154.933594 187.523438 154.933594 187.523438 C 154.925781 205.5625 169.5 220.226562 187.515625 220.226562 Z M 187.515625 220.226562 " fill-opacity="1" fill-rule="nonzero"/><path fill="#000000" d="M 375.023438 187.507812 C 375.023438 212.804688 370.058594 237.371094 360.277344 260.5 C 350.835938 282.835938 337.316406 302.878906 320.105469 320.097656 C 302.894531 337.316406 282.84375 350.828125 260.507812 360.269531 C 237.378906 370.050781 212.8125 375.015625 187.515625 375.015625 C 162.214844 375.015625 137.652344 370.050781 114.523438 360.269531 C 92.1875 350.828125 72.144531 337.308594 54.925781 320.097656 C 37.707031 302.886719 24.195312 282.835938 14.75 260.5 C 4.964844 237.371094 0 212.8125 0 187.507812 C 0 162.203125 4.964844 137.644531 14.746094 114.515625 C 24.1875 92.179688 37.707031 72.136719 54.917969 54.917969 C 72.128906 37.707031 92.179688 24.1875 114.507812 14.746094 C 137.644531 4.964844 162.195312 0 187.492188 0 C 190.289062 0 193.40625 0.0625 195.832031 0.183594 L 195.832031 51.449219 C 193.40625 51.277344 190.3125 51.195312 187.5 51.195312 C 112.339844 51.195312 51.210938 112.347656 51.210938 187.507812 C 51.210938 262.667969 112.371094 323.820312 187.539062 323.820312 C 262.707031 323.820312 323.875 262.667969 323.875 187.507812 C 323.875 156.296875 313.34375 127.496094 295.664062 104.496094 L 295.664062 34.230469 C 304.328125 40.378906 312.515625 47.289062 320.152344 54.925781 C 337.363281 72.136719 350.828125 92.1875 360.269531 114.523438 C 370.058594 137.644531 375.023438 162.207031 375.023438 187.507812 Z M 375.023438 187.507812 " fill-opacity="1" fill-rule="nonzero"/></svg>